<?xml version="1.0" standalone="no"?>
<!DOCTYPE svg PUBLIC "-//W3C//DTD SVG 20010904//EN"
 "http://www.w3.org/TR/2001/REC-SVG-20010904/DTD/svg10.dtd">
<svg version="1.0" xmlns="http://www.w3.org/2000/svg"
 width="681.000000pt" height="681.000000pt" viewBox="0 0 681.000000 681.000000"
 preserveAspectRatio="xMidYMid meet">
<metadata>
Created by potrace 1.11, written by Peter Selinger 2001-2013
</metadata>
<g transform="translate(0.000000,681.000000) scale(0.100000,-0.100000)"
fill="#000000" stroke="none">
<path d="M3149 6800 c-1150 -97 -2137 -726 -2710 -1725 -215 -375 -356 -811
-415 -1280 -25 -193 -25 -587 0 -780 83 -663 324 -1238 733 -1750 112 -140
366 -395 508 -508 520 -416 1106 -659 1780 -739 143 -17 577 -17 720 0 412 49
754 147 1112 317 611 292 1130 771 1471 1360 682 1178 599 2652 -211 3737
-507 680 -1226 1139 -2052 1308 -267 55 -680 81 -936 60z m421 -446 c0 -3 -7
-4 -15 0 -13 4 -14 2 -5 -14 6 -11 15 -20 21 -20 6 0 8 4 5 9 -13 21 7 41 40
41 19 0 34 -3 34 -7 0 -5 21 -9 48 -10 26 0 61 -4 77 -8 30 -8 65 -36 65 -54
0 -5 13 -12 29 -16 16 -3 32 -13 35 -21 3 -9 10 -13 15 -9 9 5 38 -15 83 -57
10 -10 29 -18 42 -18 14 0 31 -8 38 -17 7 -10 21 -22 29 -28 68 -42 119 -84
149 -122 19 -25 47 -58 62 -74 15 -16 37 -49 49 -74 12 -25 25 -43 27 -40 5 5
11 -9 43 -95 14 -41 45 -108 58 -130 6 -8 16 -30 23 -47 7 -18 16 -33 20 -33
5 0 8 -9 8 -19 0 -10 7 -21 15 -25 8 -3 15 -10 15 -16 0 -6 -4 -8 -10 -5 -5 3
-10 1 -10 -4 0 -16 67 -101 74 -94 6 7 36 -16 36 -27 0 -4 -7 -11 -16 -14 -8
-3 -13 -2 -10 3 3 5 -6 9 -20 9 -18 0 -22 -4 -15 -11 6 -6 11 -19 11 -29 0
-12 12 -24 30 -32 17 -7 28 -15 24 -18 -3 -4 4 -9 15 -13 14 -4 21 -15 21 -31
0 -13 4 -24 9 -24 5 0 11 -12 14 -27 20 -94 20 -96 1 -110 -14 -10 -15 -16 -6
-25 7 -7 12 -20 12 -31 0 -10 5 -28 12 -40 7 -12 13 -36 14 -54 1 -18 9 -42
18 -55 20 -28 20 -42 1 -34 -19 7 -20 -10 -1 -21 25 -15 37 -53 31 -96 -4 -23
-2 -55 4 -70 8 -21 8 -31 -1 -40 -21 -20 -60 -35 -104 -42 -22 -3 -53 -13 -69
-21 -25 -13 -40 -12 -139 5 -61 11 -135 23 -163 26 -29 4 -53 10 -53 14 0 4
-21 17 -47 29 -112 49 -133 55 -190 49 -31 -3 -63 -2 -72 2 -26 13 -216 -6
-268 -27 -27 -11 -68 -25 -92 -33 -24 -8 -42 -18 -41 -23 1 -5 -5 -13 -14 -18
-9 -5 -14 -13 -11 -17 2 -5 -19 -16 -48 -26 -28 -9 -76 -36 -106 -58 -51 -40
-59 -42 -131 -45 -87 -4 -111 4 -174 63 -28 26 -54 40 -92 48 -45 9 -58 17
-86 54 -39 53 -61 68 -113 77 -22 4 -44 11 -50 14 -20 13 -142 30 -221 31 -52
1 -92 7 -113 17 -20 10 -49 14 -79 12 -42 -3 -47 -1 -50 20 -2 12 0 22 5 22 8
0 11 27 15 138 3 66 -4 142 -13 137 -4 -3 -13 3 -20 12 -18 21 -23 350 -6 406
13 42 40 50 57 17 6 -12 22 -25 35 -30 16 -6 23 -15 19 -25 -3 -8 -10 -12 -15
-9 -5 3 -9 1 -9 -5 0 -5 5 -13 10 -16 6 -3 10 -2 10 4 0 6 10 19 21 30 14 12
19 26 15 37 -3 9 -1 22 4 30 6 7 12 30 13 51 1 21 6 41 11 44 4 4 12 24 16 45
15 71 38 143 59 187 12 24 21 51 21 60 0 9 5 19 10 22 6 3 10 15 10 25 0 11 9
24 20 30 11 6 20 19 20 30 0 11 14 33 31 51 27 27 34 48 38 112 1 5 10 6 21 2
24 -8 60 11 60 30 0 8 5 16 10 16 6 1 15 2 20 3 6 0 15 7 19 15 5 8 22 14 39
15 17 0 30 6 29 11 -1 6 6 9 17 7 10 -2 16 1 13 5 -3 5 -2 15 3 23 8 12 10 12
15 -2 4 -9 13 -14 20 -12 7 3 16 0 20 -5 3 -6 11 -8 17 -5 7 5 9 0 6 -14 -7
-26 19 -31 28 -7 7 17 73 21 90 6 15 -15 72 -23 79 -12 3 6 -1 14 -9 17 -9 3
-16 12 -16 19 0 10 14 13 55 10 39 -2 58 1 66 12 9 10 9 17 2 21 -7 5 -7 15
-1 32 6 15 12 20 15 13 7 -18 24 -16 38 4 9 13 24 17 54 14 32 -2 41 1 41 13
0 24 38 20 42 -5 3 -20 3 -20 23 -1 11 10 26 17 33 14 7 -2 12 7 12 24 l0 28
20 -22 c11 -12 20 -24 20 -28z m-1255 -874 c3 -5 1 -10 -4 -10 -6 0 -11 5 -11
10 0 6 2 10 4 10 3 0 8 -4 11 -10z m1802 -886 c-3 -3 -12 -4 -19 -1 -8 3 -5 6
6 6 11 1 17 -2 13 -5z m935 -81 c53 -58 58 -79 58 -263 0 -116 -5 -193 -15
-238 -8 -37 -21 -112 -29 -167 -14 -105 -41 -184 -96 -283 -54 -98 -151 -138
-231 -97 -35 19 -43 19 -35 0 3 -8 1 -15 -3 -15 -5 0 -12 -19 -16 -42 -3 -24
-13 -67 -21 -97 -9 -29 -17 -65 -19 -80 -7 -56 -67 -269 -90 -321 -44 -100
-57 -184 -87 -535 -20 -243 -17 -293 23 -307 27 -9 59 -60 59 -91 0 -8 -7 -18
-16 -21 -11 -4 -19 3 -27 24 -13 35 -47 42 -47 9 0 -19 13 -40 70 -107 11 -13
20 -29 20 -35 0 -7 5 -6 11 3 8 12 9 10 4 -7 -3 -12 -2 -24 3 -27 15 -9 35
-133 28 -175 -6 -39 -84 -240 -116 -300 -10 -19 -53 -81 -96 -139 -44 -57 -86
-114 -94 -126 -33 -47 -132 -167 -216 -261 -97 -108 -202 -194 -261 -213 -21
-7 -55 -20 -76 -29 -36 -16 -39 -15 -57 3 -11 12 -36 89 -65 199 -26 99 -53
189 -60 200 -7 11 -22 56 -34 100 -12 44 -38 121 -57 170 -20 50 -46 115 -58
145 -26 67 -64 137 -78 147 -6 3 -22 -6 -35 -21 -19 -23 -23 -24 -23 -8 0 10
9 28 20 40 11 12 20 26 20 31 0 5 12 18 28 29 24 17 47 24 114 35 10 2 21 6
24 10 4 4 25 7 47 7 27 0 51 8 72 24 22 17 48 26 81 28 40 2 50 7 52 23 3 11
13 28 23 38 10 10 19 28 19 40 0 16 3 18 9 9 6 -10 11 -5 21 17 13 32 29 41
31 19 1 -7 7 5 13 27 7 22 18 40 25 40 13 0 71 84 71 103 0 7 4 11 8 8 5 -3
19 2 32 11 20 14 21 18 8 27 -8 6 -15 19 -15 28 0 13 4 15 19 7 12 -6 18 -6
18 1 0 5 -4 10 -10 10 -5 0 -10 6 -10 13 0 19 24 67 33 67 5 0 5 5 2 10 -4 6
-10 8 -14 5 -8 -4 -33 63 -60 163 -14 51 -19 51 -22 1 -4 -46 -25 -46 -40 -2
-9 28 -13 32 -25 22 -8 -7 -12 -14 -10 -17 9 -8 -14 -43 -24 -37 -5 3 -6 22
-3 43 6 34 5 36 -11 23 -25 -21 -31 -6 -7 18 l21 21 -24 0 c-13 0 -29 -7 -36
-15 -7 -8 -22 -15 -34 -16 -11 0 -15 -3 -8 -6 6 -2 12 -9 12 -14 0 -6 -4 -7
-10 -4 -5 3 -10 -1 -10 -9 0 -9 -4 -16 -10 -16 -5 0 -16 -12 -24 -27 -11 -20
-15 -23 -16 -10 0 9 -4 17 -9 17 -13 0 -20 -25 -14 -49 8 -29 -5 -26 -17 4
-12 32 -32 33 -24 1 3 -13 0 -34 -7 -47 -9 -17 -9 -24 0 -27 6 -2 11 -8 11
-13 0 -12 -37 -12 -45 1 -13 21 -22 9 -21 -27 1 -33 -2 -38 -19 -35 -11 2 -21
5 -23 7 -8 7 -15 75 -14 125 1 49 0 53 -13 37 -13 -18 -14 -18 -25 4 -7 12
-13 35 -14 50 -2 24 1 28 15 24 16 -5 16 -3 6 27 -6 18 -21 48 -33 66 l-22 33
22 24 c22 25 37 26 16 0 -10 -12 -10 -15 4 -15 9 0 16 -8 16 -17 0 -14 2 -15
13 -4 10 11 10 14 0 18 -18 6 -16 23 2 23 21 0 19 30 -2 46 -15 10 -16 15 -5
25 10 11 12 10 12 -4 0 -9 5 -17 10 -17 6 0 10 4 10 9 0 5 3 16 6 24 4 11 -1
13 -20 10 -19 -4 -26 -1 -26 11 0 15 -26 21 -74 16 -11 -1 -15 3 -12 9 4 7 -1
11 -14 11 -18 0 -19 -3 -9 -22 9 -19 9 -21 -2 -10 -22 20 -42 15 -29 -8 15
-28 6 -25 -35 11 -22 20 -50 33 -76 36 -33 5 -40 9 -36 24 3 10 0 16 -7 13
-14 -5 -46 46 -46 74 0 11 -7 22 -15 26 -8 3 -15 9 -15 13 1 23 25 37 82 49
34 6 55 12 45 13 -12 1 -17 7 -15 19 3 11 10 15 23 12 11 -2 35 -4 53 -5 17 0
32 -3 32 -7 0 -5 -14 -8 -32 -8 -53 0 -23 -12 39 -15 62 -3 108 9 98 25 -4 6
-3 10 2 9 17 -5 83 14 83 23 0 5 -9 7 -20 3 -25 -8 -111 5 -105 15 8 13 -32
22 -82 18 -77 -5 -61 37 17 46 30 3 55 16 31 16 -7 0 -9 5 -6 10 3 6 0 10 -8
10 -10 0 -13 8 -9 26 3 19 7 22 13 12 5 -7 6 4 2 27 -3 22 -10 45 -15 52 -6 7
-4 13 4 16 8 3 6 6 -5 6 -15 1 -16 5 -7 21 6 11 15 20 20 20 6 0 28 13 49 28
l39 28 -44 10 c-33 8 -52 7 -74 -2 -53 -23 -107 9 -141 83 -22 48 -19 76 16
138 21 36 23 51 20 140 -2 55 -8 116 -14 135 -6 19 -11 49 -11 67 0 20 -7 36
-17 42 -10 6 -13 11 -6 11 9 0 12 28 11 98 -1 80 2 105 20 143 12 26 29 49 38
53 24 9 97 -5 118 -23 10 -9 52 -84 93 -168 42 -86 92 -172 115 -198 78 -88
173 -116 400 -116 214 0 341 25 428 86 73 50 138 219 165 423 9 71 21 123 30
131 8 8 38 18 67 22 29 4 65 11 81 14 23 6 27 4 27 -14 0 -14 4 -20 11 -15 6
3 8 15 6 26 -3 11 -3 17 0 14 3 -3 30 14 59 39 29 25 58 45 66 45 7 1 24 7 38
15 14 8 43 14 66 15 31 0 46 -6 66 -27z m-722 -12 c23 -10 22 -10 -10 -6 -19
3 -108 6 -197 8 -90 1 -163 6 -163 11 0 12 338 0 370 -13z m116 -72 c27 -25
19 -44 -21 -51 -18 -4 -32 4 -56 28 -18 19 -29 34 -23 35 5 1 -2 5 -16 10 -18
6 -8 7 34 4 43 -3 65 -10 82 -26z m-401 -20 c7 -9 -2 -10 -35 -5 -61 9 -80 29
-20 21 24 -3 49 -10 55 -16z m61 -13 c3 -8 16 -12 35 -10 29 4 41 -10 17 -19
-17 -5 -98 22 -98 34 0 14 40 10 46 -5z m-601 -6 c3 -6 -2 -8 -12 -5 -10 3 -8
0 5 -7 19 -9 25 -9 33 3 6 9 9 10 9 2 0 -7 7 -10 14 -7 8 3 21 0 29 -7 12 -11
10 -17 -12 -39 l-25 -25 29 -3 c37 -5 56 -19 48 -38 -7 -18 10 -12 93 33 34
18 65 33 68 33 3 0 6 -14 6 -30 0 -46 25 -87 58 -94 28 -7 119 1 135 11 5 3
15 21 23 40 11 26 20 33 37 31 40 -6 50 -18 30 -34 -17 -14 -17 -15 5 -9 12 4
22 2 22 -4 0 -6 6 -8 13 -6 6 3 39 -6 72 -19 33 -14 61 -23 64 -21 5 5 -121
125 -131 125 -5 0 -8 5 -8 11 0 12 40 -11 74 -43 11 -10 25 -18 32 -18 7 0 19
-3 28 -6 23 -9 20 15 -6 35 -20 17 -18 48 3 35 5 -3 17 0 26 8 9 7 14 8 10 2
-4 -7 0 -17 8 -24 8 -7 15 -19 15 -27 0 -8 4 -12 8 -9 5 3 20 7 34 10 32 5
118 66 118 83 0 26 18 12 24 -18 24 -123 -30 -374 -100 -467 -55 -72 -178
-105 -389 -104 -77 0 -171 3 -210 6 -46 3 -61 2 -45 -3 24 -9 24 -9 3 -10 -67
-3 -193 91 -193 143 0 44 -48 165 -86 218 -33 46 -38 61 -42 123 -4 67 -3 72
26 103 31 33 46 39 57 22z m-716 -75 c28 -19 55 -35 61 -35 16 0 12 -12 -12
-37 -13 -13 -33 -23 -50 -23 -15 0 -28 -4 -28 -9 0 -20 107 -31 120 -11 3 4
16 10 30 14 23 6 23 6 5 -5 -29 -18 -51 -41 -58 -61 -4 -10 -17 -18 -29 -18
-21 -1 -21 -2 -5 -11 10 -6 24 -8 31 -6 9 4 12 -5 9 -34 -3 -27 1 -44 12 -55
15 -15 19 -13 48 20 24 27 36 34 46 27 13 -8 13 -17 1 -65 -7 -31 -19 -61 -26
-67 -7 -6 -10 -18 -7 -26 5 -12 3 -14 -7 -8 -10 6 -12 4 -7 -8 8 -21 -41 -63
-91 -77 -87 -25 -236 -34 -363 -22 -205 19 -306 53 -336 113 -20 39 -5 35 41
-10 44 -44 106 -65 121 -41 3 6 0 7 -9 4 -21 -8 -20 7 2 45 14 25 15 34 5 51
-16 24 -17 60 -2 60 5 0 8 4 4 9 -8 14 30 32 49 25 11 -4 16 -1 16 11 0 13 5
15 23 9 12 -4 47 -8 77 -8 39 -1 54 -5 52 -14 -1 -9 9 -11 40 -6 60 9 67 21
19 29 -23 4 -54 13 -70 21 -41 20 -83 62 -75 75 4 7 9 8 17 0 7 -7 16 -7 29 0
12 6 24 6 37 -1 11 -5 45 -10 75 -10 45 0 54 3 50 15 -4 8 -18 15 -33 15 -37
1 -8 16 47 25 49 8 72 40 72 100 0 19 4 35 9 35 5 0 32 -16 60 -35z m1422 22
c-1 -12 -15 -9 -19 4 -3 6 1 10 8 8 6 -3 11 -8 11 -12z m-1551 -17 c-19 -13
-30 -13 -30 0 0 6 10 10 23 10 18 0 19 -2 7 -10z m1278 -2 c-3 -7 -12 -14 -21
-16 -12 -2 -15 1 -11 12 7 19 38 22 32 4z m-71 -80 c-3 -8 -6 -5 -6 6 -1 11 2
17 5 13 3 -3 4 -12 1 -19z m-1308 -28 c7 0 9 -5 6 -10 -4 -7 -14 -6 -28 2 -12
7 -25 11 -29 10 -5 -1 -8 8 -8 20 l0 21 23 -21 c13 -12 29 -22 36 -22z m498
-415 c-13 -44 -52 -85 -80 -85 -24 0 -79 -36 -95 -61 -6 -10 -28 -59 -47 -110
-37 -94 -46 -146 -28 -157 5 -4 15 -17 22 -29 6 -13 19 -23 27 -23 14 0 13 -2
-1 -16 -9 -9 -14 -23 -11 -30 3 -7 1 -16 -4 -19 -5 -3 -7 -12 -4 -20 3 -7 1
-21 -4 -31 -8 -14 -10 -11 -14 15 -2 17 -1 31 4 31 5 0 8 12 6 27 -4 33 -37
45 -44 16 -4 -15 -12 -18 -38 -15 -19 2 -37 -1 -41 -7 -5 -8 1 -10 19 -5 30 7
33 0 11 -23 -15 -15 -67 -30 -128 -38 -32 -4 -57 -21 -57 -39 0 -6 -9 -19 -20
-29 -18 -15 -24 -14 -21 6 0 4 -6 7 -14 7 -9 0 -12 6 -9 15 4 9 0 15 -10 15
-9 0 -16 4 -16 9 0 5 -9 12 -20 16 -11 3 -19 9 -19 13 1 4 1 24 0 44 -1 36
-14 56 -88 135 -13 13 -23 29 -23 35 0 6 -3 8 -7 5 -11 -12 -43 25 -43 49 0
13 -6 27 -13 31 -24 15 -47 63 -47 98 0 19 5 35 10 35 6 0 8 11 6 24 -4 22 0
25 42 30 26 4 115 8 197 11 195 6 264 13 355 38 41 11 92 22 113 24 20 3 37 8
37 12 0 4 10 8 22 8 13 1 24 7 26 12 2 6 13 22 25 37 l21 27 7 -26 c4 -15 2
-43 -4 -62z m-782 -19 c28 -8 43 -15 35 -15 -8 0 -37 6 -65 13 -27 8 -43 15
-35 15 8 0 38 -6 65 -13z m1558 -3 c-7 -2 -21 -2 -30 0 -10 3 -4 5 12 5 17 0
24 -2 18 -5z m-815 -240 c-6 -7 -14 -13 -19 -13 -13 0 -11 19 4 34 16 18 31
-3 15 -21z m22 -29 c0 -8 -4 -12 -10 -9 -5 3 -10 10 -10 16 0 5 5 9 10 9 6 0
10 -7 10 -16z m-260 -254 c0 -5 -5 -10 -11 -10 -5 0 -7 5 -4 10 3 6 8 10 11
10 2 0 4 -4 4 -10z m8 -52 c-9 -13 -24 -25 -34 -27 -16 -3 -15 1 6 22 32 31
47 34 28 5z m-178 -298 c10 0 21 -4 25 -9 7 -12 65 7 65 20 0 37 52 -30 55
-70 4 -55 4 -56 17 -43 8 8 21 0 50 -33 22 -25 45 -42 51 -38 6 4 8 0 4 -10
-3 -10 -2 -17 3 -17 6 0 10 5 10 10 0 6 5 10 11 10 6 0 8 -7 5 -16 -3 -8 -2
-12 4 -9 6 3 13 -1 16 -9 4 -10 19 -16 40 -16 25 0 38 -7 50 -25 9 -14 20 -23
24 -20 5 3 13 -2 18 -11 17 -30 -16 -125 -53 -155 -17 -15 -18 -19 -5 -34 12
-14 12 -19 2 -22 -6 -3 -10 -8 -7 -13 2 -4 -4 -15 -15 -25 -11 -10 -20 -25
-21 -34 0 -10 -2 -12 -6 -3 -7 18 -21 15 -28 -8 -10 -33 -24 -23 -15 11 9 29
8 30 -18 27 -25 -3 -27 -1 -24 30 2 17 0 32 -5 32 -21 -1 -86 -29 -94 -41 -6
-10 -9 -10 -9 -2 0 7 11 20 24 28 36 24 60 65 47 78 -8 8 -11 8 -11 -1 0 -7
-7 -12 -15 -12 -8 0 -15 5 -15 10 0 6 -10 15 -22 20 l-23 9 21 6 c15 5 20 13
17 25 -3 11 -11 16 -19 13 -8 -3 -14 0 -14 7 0 6 -4 8 -10 5 -5 -3 -10 3 -10
14 0 22 -29 30 -31 9 0 -10 -2 -10 -6 0 -2 6 -10 12 -18 12 -7 0 -18 7 -25 15
-10 12 -9 15 6 16 18 0 18 1 0 8 -18 7 -18 8 -2 14 10 4 27 2 39 -4 20 -9 21
-9 4 4 -14 11 -15 16 -5 20 9 4 9 6 -2 6 -9 1 -21 -4 -27 -10 -15 -15 -33 -3
-33 22 0 16 -5 19 -20 14 -17 -5 -20 -2 -20 20 0 20 -4 26 -15 21 -11 -4 -15
1 -15 17 0 12 -7 31 -15 41 -8 11 -13 27 -10 37 3 9 1 28 -4 42 -8 20 -6 28 9
42 10 9 24 14 29 10 6 -3 12 0 12 7 1 7 4 1 6 -14 3 -19 10 -28 23 -28z m555
30 c3 -5 -1 -10 -9 -10 -8 0 -18 5 -21 10 -3 6 1 10 9 10 8 0 18 -4 21 -10z
m-10 -249 c7 -12 -15 -61 -28 -61 -5 0 -7 10 -3 23 3 12 6 28 6 35 0 14 16 16
25 3z m97 -16 c-3 -19 -8 -23 -17 -15 -9 8 -14 5 -18 -12 -4 -12 -9 -19 -13
-16 -11 11 20 68 37 68 12 0 15 -7 11 -25z m125 -17 c-3 -8 -6 -5 -6 6 -1 11
2 17 5 13 3 -3 4 -12 1 -19z m-348 -290 c0 -7 -4 -22 -8 -32 -10 -26 -25 -3
-16 24 7 22 25 28 24 8z m271 -19 c9 -17 8 -25 -7 -41 -18 -20 -18 -20 -24 13
-8 52 10 68 31 28z m-86 -35 c10 -26 7 -32 -18 -30 -20 1 -22 4 -13 24 12 26
22 28 31 6z m225 -70 c-10 -25 -13 -26 -17 -9 -2 10 1 21 7 23 6 2 12 13 12
25 1 14 3 16 6 6 2 -8 -2 -29 -8 -45z m-329 17 c0 -17 -18 -21 -24 -6 -3 9 0
15 9 15 8 0 15 -4 15 -9z m-21 -116 c-1 -29 -2 -28 -14 10 -8 22 -14 56 -14
75 l0 35 15 -45 c7 -25 13 -58 13 -75z m-106 52 c-6 -39 -23 -41 -23 -3 0 19
19 50 27 43 1 -2 0 -20 -4 -40z m44 -29 c-2 -13 -4 -5 -4 17 -1 22 1 32 4 23
2 -10 2 -28 0 -40z m507 -43 c-4 -8 -8 -15 -10 -15 -2 0 -4 7 -4 15 0 8 4 15
10 15 5 0 7 -7 4 -15z m-165 -59 c-9 -8 -10 -7 -5 7 3 10 7 28 7 40 2 16 3 14
6 -7 3 -16 -1 -34 -8 -40z m-101 -581 c5 -5 -18 -86 -38 -130 -10 -22 -34
-103 -53 -180 -98 -392 -195 -702 -217 -697 -7 1 -89 82 -184 179 -94 98 -180
186 -192 198 -24 23 -49 66 -37 64 21 -4 33 2 33 16 0 26 42 36 63 14 10 -11
22 -19 27 -19 6 0 10 -7 10 -15 0 -8 9 -23 21 -34 11 -10 27 -36 34 -58 8 -22
21 -39 32 -42 10 -2 20 -7 24 -12 3 -5 27 -10 54 -11 l49 -3 2 79 c2 44 5 89
8 102 3 12 -1 35 -9 50 -8 16 -15 37 -15 46 0 9 -4 20 -10 23 -5 3 -10 19 -10
34 0 15 -4 31 -9 37 -40 41 -68 268 -36 294 21 17 73 15 93 -3 10 -10 31 -17
45 -17 15 0 27 -4 27 -9 0 -5 18 -12 40 -16 44 -7 107 20 90 40 -13 16 23 57
55 60 15 2 33 9 39 15 9 9 53 6 64 -5z m92 -237 c6 -24 19 -65 30 -93 35 -94
80 -258 80 -292 0 -18 4 -41 9 -51 11 -20 31 -149 30 -189 l-1 -28 -8 30 c-7
26 -8 23 -9 -22 0 -28 -6 -55 -12 -58 -6 -4 -8 -13 -5 -21 3 -8 1 -14 -4 -14
-6 0 -10 -6 -10 -14 0 -8 -14 -24 -31 -37 -17 -13 -37 -30 -44 -37 -8 -6 -19
-12 -25 -12 -6 0 -8 -4 -5 -10 11 -19 -47 -22 -104 -6 -31 9 -71 16 -88 16
-60 0 -63 4 -47 73 8 34 21 80 28 102 8 22 22 69 31 105 10 36 24 85 31 110 8
25 14 50 15 55 1 6 6 21 11 35 5 14 12 45 15 70 6 60 29 149 59 228 13 35 24
73 24 83 0 35 19 20 30 -23z"/>
<path d="M3547 6303 c-4 -3 -7 -11 -7 -17 0 -6 5 -5 12 2 6 6 9 14 7 17 -3 3
-9 2 -12 -2z"/>
<path d="M3350 6204 c0 -14 3 -14 15 -4 8 7 15 14 15 16 0 2 -7 4 -15 4 -8 0
-15 -7 -15 -16z"/>
<path d="M2797 6133 c-24 -6 -11 -23 19 -23 15 0 24 6 24 15 0 15 -9 17 -43 8z"/>
<path d="M4450 5583 c0 -10 7 -29 16 -41 12 -18 19 -20 30 -11 17 14 4 43 -26
59 -17 9 -20 8 -20 -7z"/>
<path d="M4725 5081 c-3 -5 -1 -12 5 -16 5 -3 10 1 10 9 0 18 -6 21 -15 7z"/>
<path d="M4971 4426 c-10 -11 -8 -16 8 -21 11 -3 29 -17 40 -31 16 -20 20 -22
25 -8 8 20 -2 56 -18 66 -18 12 -43 9 -55 -6z"/>
<path d="M4707 4303 c-4 -3 -7 -11 -7 -17 0 -6 5 -5 12 2 6 6 9 14 7 17 -3 3
-9 2 -12 -2z"/>
<path d="M4691 4234 c0 -11 3 -14 6 -6 3 7 2 16 -1 19 -3 4 -6 -2 -5 -13z"/>
<path d="M4780 4133 c0 -25 1 -26 16 -11 9 9 13 21 10 27 -13 20 -26 11 -26
-16z"/>
<path d="M3893 3455 c43 -41 95 -84 116 -95 71 -35 141 -109 161 -169 17 -51
18 -52 24 -25 9 41 -22 101 -82 154 -75 68 -119 102 -152 117 -8 4 -19 11 -25
15 -5 5 -23 20 -40 33 -16 14 -36 25 -42 25 -7 0 -13 5 -13 10 0 6 -6 10 -12
10 -7 0 22 -34 65 -75z"/>
<path d="M3563 3409 c-47 -14 -50 -29 -6 -23 65 9 83 14 83 24 0 12 -34 12
-77 -1z"/>
<path d="M3526 3285 c4 -10 0 -15 -10 -15 -9 0 -19 -7 -22 -15 -7 -17 -34 -21
-34 -5 0 18 -17 11 -23 -9 -3 -13 -13 -19 -31 -18 -14 1 -27 7 -27 12 -2 19
-17 -50 -18 -87 -1 -26 6 -44 23 -62 21 -23 31 -26 98 -26 41 0 79 5 85 11 14
14 121 20 129 8 3 -5 15 -2 28 6 13 9 31 13 40 9 12 -5 19 0 23 15 6 23 21 29
20 9 -1 -45 3 -62 15 -50 17 17 39 15 32 -2 -8 -21 -147 -73 -152 -58 -6 18
-32 14 -32 -5 0 -9 -3 -14 -6 -10 -4 3 -13 0 -21 -8 -13 -13 -12 -17 2 -31 14
-15 20 -15 65 0 27 9 55 16 62 16 7 0 33 14 58 30 53 35 87 38 124 9 14 -11
26 -16 26 -11 0 5 7 9 15 9 8 0 15 -6 15 -14 0 -7 9 -13 19 -13 11 0 23 -4 26
-10 13 -20 33 -9 39 22 8 39 -4 178 -15 178 -4 0 -9 -8 -11 -17 -2 -12 -11 -2
-27 30 -12 26 -27 47 -32 47 -14 0 -41 -48 -34 -60 5 -8 -6 -9 -33 -6 -31 4
-42 1 -44 -10 -2 -11 -18 -1 -53 30 -52 48 -54 48 -80 1 l-17 -30 6 27 c5 23
3 26 -10 21 -13 -5 -15 -1 -10 18 3 13 3 18 0 12 -8 -19 -22 -16 -29 7 -8 25
-36 27 -31 3 4 -23 15 -54 27 -76 9 -16 7 -17 -11 -7 -12 6 -20 21 -20 35 0
18 -5 25 -20 25 -11 0 -20 5 -20 10 0 15 -42 70 -53 70 -5 0 -7 -6 -4 -14 4
-10 0 -12 -14 -9 -10 3 -19 9 -19 14 0 5 -4 9 -10 9 -5 0 -7 -7 -4 -15z m349
-165 c3 -5 1 -10 -4 -10 -6 0 -11 5 -11 10 0 6 2 10 4 10 3 0 8 -4 11 -10z"/>
<path d="M3903 3219 c-2 -23 3 -25 10 -4 4 8 3 16 -1 19 -4 3 -9 -4 -9 -15z"/>
<path d="M4115 3069 c-4 -6 -5 -12 -2 -15 2 -3 7 2 10 11 7 17 1 20 -8 4z"/>
<path d="M4223 2995 c-3 -9 -3 -18 0 -22 10 -10 37 6 37 22 0 20 -29 20 -37 0z"/>
<path d="M3604 2950 c-6 -6 -44 -14 -85 -17 -63 -5 -70 -8 -47 -15 26 -9 153
4 165 16 6 6 -6 26 -16 26 -4 0 -12 -5 -17 -10z"/>
<path d="M3980 2939 c0 -11 5 -17 10 -14 6 3 10 13 10 21 0 8 -4 14 -10 14 -5
0 -10 -9 -10 -21z"/>
<path d="M3542 2293 c-2 -30 -22 -49 -22 -21 0 6 -3 9 -6 5 -3 -3 -3 -15 1
-26 10 -34 37 0 32 41 l-4 33 -1 -32z"/>
<path d="M4041 2244 c-18 -21 -6 -30 14 -11 8 9 15 18 15 21 0 11 -15 5 -29
-10z"/>
<path d="M4522 1990 c0 -14 2 -19 5 -12 2 6 2 18 0 25 -3 6 -5 1 -5 -13z"/>
<path d="M3632 4222 c-9 -6 -6 -12 13 -20 14 -6 25 -16 25 -22 0 -14 52 -8 69
8 12 12 12 15 0 23 -8 5 -26 9 -41 9 -14 0 -32 2 -40 5 -7 3 -19 1 -26 -3z"/>
<path d="M2727 4123 c-4 -3 -7 -11 -7 -17 0 -6 5 -5 12 2 6 6 9 14 7 17 -3 3
-9 2 -12 -2z"/>
<path d="M2675 4100 c-3 -5 1 -10 9 -10 9 0 16 5 16 10 0 6 -4 10 -9 10 -6 0
-13 -4 -16 -10z"/>
<path d="M2640 4070 c0 -5 9 -10 20 -10 11 0 20 5 20 10 0 6 -9 10 -20 10 -11
0 -20 -4 -20 -10z"/>
<path d="M2918 3773 c7 -3 16 -2 19 1 4 3 -2 6 -13 5 -11 0 -14 -3 -6 -6z"/>
<path d="M2557 2878 c-6 -23 8 -48 27 -48 6 0 5 4 -3 9 -8 5 -12 19 -9 35 6
31 -7 35 -15 4z"/>
<path d="M2754 2699 c-3 -6 -1 -16 5 -22 8 -8 11 -5 11 11 0 24 -5 28 -16 11z"/>
<path d="M2930 2390 c0 -5 5 -10 11 -10 5 0 7 5 4 10 -3 6 -8 10 -11 10 -2 0
-4 -4 -4 -10z"/>
<path d="M3126 1181 c-4 -7 -5 -15 -2 -18 9 -9 19 4 14 18 -4 11 -6 11 -12 0z"/>
<path d="M2679 803 c-13 -16 -12 -17 4 -4 16 13 21 21 13 21 -2 0 -10 -8 -17
-17z"/>
</g>
</svg>
